<?xml version="1.0" encoding="UTF-8"?>
<svg enable-background="new 0 0 512 512" version="1.1" viewBox="0 0 512 512" xml:space="preserve" xmlns="http://www.w3.org/2000/svg"><g transform="translate(-3.1699 2.6645)"><path transform="matrix(1.5717 0 0 1.5918 -111.73 33.427)" d="m92.358 97.297c67.372-79.276 187.07-89.616 267.36-23.096 8.4631 7.0117 16.29 14.74 23.391 23.096" fill="#fff" opacity=".65021" stroke="#6f6fde" stroke-linecap="square" stroke-width="18"/><path transform="matrix(1.2573 0 0 1.2734 -37.001 102.75)" d="m92.358 97.297c67.372-79.276 187.07-89.616 267.36-23.096 8.4631 7.0117 16.29 14.74 23.391 23.096" fill="#fff" opacity=".65021" stroke="#6f6fde" stroke-linecap="square" stroke-width="19.757"/><path transform="matrix(1.0059 0 0 1.0187 22.782 158.2)" d="m92.358 97.297c67.372-79.276 187.07-89.616 267.36-23.096 8.4631 7.0117 16.29 14.74 23.391 23.096" fill="#fff" opacity=".65021" stroke="#6f6fde" stroke-linecap="square" stroke-width="22.227"/><path transform="matrix(.72422 0 0 .73349 89.738 222.19)" d="m92.358 97.297c67.372-79.276 187.07-89.616 267.36-23.096 8.4631 7.0117 16.29 14.74 23.391 23.096" fill="#fff" opacity=".65021" stroke="#6f6fde" stroke-linecap="square" stroke-width="27.784"/><path transform="matrix(1.25 0 0 1.25 -74.654 1.1165)" d="m291.86 255.08c0 12.865-10.122 23.294-22.609 23.294s-22.609-10.429-22.609-23.294 10.122-23.294 22.609-23.294 22.609 10.429 22.609 23.294z" fill="#00f" opacity=".65021"/></g><g transform="matrix(3.75 0 0 3.75 72.775 37.81)" fill="#ed1c24" opacity=".8"><polygon transform="matrix(.3 .1 .1 .3 -1.6228 -.66618)" points="0.084 39.789 40.848 -1.081 255.41 214.05 214.65 254.92"/><polygon transform="matrix(.3 -.1 -.1 .3 23.761 24.884)" points="40.848 254.92 0.084 214.05 214.65 -1.082 255.41 39.789"/></g></svg>
